<?xml version="1.0" encoding="utf-8"?><!-- Generator: Adobe Illustrator 21.0.2, SVG Export Plug-In . SVG Version: 6.00 Build 0)  --><svg version="1.1" id="Layer_1" xmlns="http://www.w3.org/2000/svg" xmlns:xlink="http://www.w3.org/1999/xlink" x="0px" y="0px"	 viewBox="0 0 100 100" style="enable-background:new 0 0 100 100;" xml:space="preserve"><style type="text/css">	.st0{fill:none;stroke:#3569A4;stroke-width:2.5;stroke-miterlimit:10;}	.st1{fill:#FFFFFF;stroke:#3569A4;stroke-width:2.5;stroke-miterlimit:10;}</style><circle class="st0" cx="50" cy="50" r="45"/><g>	<rect x="30.5" y="24.9" class="st0" width="27.2" height="37.4"/>	<rect x="43.3" y="32.6" class="st1" width="29.8" height="42.5"/>	<path class="st1" d="M48.3,38.5c0.1,0.3,0.6,1.2,1.7,1.7c0.2,0.1,1.5,0.6,2.5,0c0.5-0.3,0.4-0.6,0.9-0.8c0.3-0.2,1.9-0.5,4.3,0.8		c1,0.6,1.2,0.9,1.7,0.9c0.8-0.1,1.3-1,1.7-1.7"/>	<path class="st1" d="M47.5,47c1.3,0.4,2.5,0.7,3.4,0.8c2.3,0.4,3.7,0.6,5.1,0c1.5-0.7,1.3-1.5,2.5-1.7c1.3-0.2,1.8,0.7,4.3,0.9		c0.1,0,0,0,1.7,0c1.1,0,2,0,2.6,0"/>	<path class="st1" d="M47.5,53c1,0.3,2.5,0.6,4.3,0.9c1.3,0.1,3.4,0.4,6,0c3.2-0.5,4.1-1.4,6-0.9c1.2,0.4,2,1.1,2.5,1.7"/>	<path class="st1" d="M47.5,58.9c1.6-1.6,2.7-1.8,3.4-1.7c0.7,0.1,0.7,0.5,1.7,0.9c1.2,0.4,2.4,0.2,3.4,0c1.7-0.3,1.4-0.7,2.5-0.9		c1.8-0.2,2.5,0.7,5.1,0.9c0.7,0,1.3,0,1.7,0"/>	<path class="st1" d="M47.5,64c2.3,0.5,4,0.3,5.1,0c1.9-0.5,3.4-1.5,4.3-0.9c0.6,0.4,0.2,1.1,0.9,1.7c0.8,0.7,2.1,0.4,4.3,0		c1.2-0.2,2.9-0.5,5.1-0.8"/>	<path class="st1" d="M48.3,70.8c1.6-1.1,2.7-1.1,3.4-0.8c0.6,0.2,0.9,0.6,1.7,0.8c1,0.3,1.9,0.2,2.5,0"/>	<path class="st1" d="M61.1,70.8c0.7-0.6,1.3-0.8,1.7-0.8c0.5-0.1,0.8,0,1.7,0c0.7,0,1.3,0,1.7,0"/></g></svg>