<?xml version="1.0" encoding="utf-8"?><!-- Generator: Adobe Illustrator 21.0.2, SVG Export Plug-In . SVG Version: 6.00 Build 0)  --><svg version="1.1" id="Layer_1" xmlns="http://www.w3.org/2000/svg" xmlns:xlink="http://www.w3.org/1999/xlink" x="0px" y="0px"	 viewBox="0 0 200 200" style="enable-background:new 0 0 200 200;" xml:space="preserve"><style type="text/css">	.st0{fill:none;stroke:#3569A4;stroke-width:5;stroke-miterlimit:10;}	.st1{fill:#FFFFFF;stroke:#3569A4;stroke-width:5;stroke-miterlimit:10;}</style><circle class="st0" cx="100" cy="100" r="96.1"/><g>	<rect x="58.3" y="46.4" class="st0" width="58.1" height="79.9"/>	<rect x="85.6" y="62.8" class="st1" width="63.6" height="90.8"/>	<path class="st1" d="M96.5,75.5c0.3,0.6,1.3,2.6,3.6,3.6c0.3,0.2,3.2,1.3,5.4,0c1.1-0.7,0.9-1.2,1.8-1.8c0.6-0.3,4-1.2,9.1,1.8		c2.1,1.2,2.5,1.9,3.6,1.8c1.7-0.2,2.9-2.1,3.6-3.6"/>	<path class="st1" d="M94.7,94.6c2.8,0.9,5.3,1.5,7.3,1.8c5,0.8,7.8,1.3,10.9,0c3.3-1.4,2.8-3.2,5.4-3.6c2.9-0.5,3.9,1.6,9.1,1.8		c0.1,0,0.1,0,3.6,0c2.3,0,4.2,0,5.4,0"/>	<path class="st1" d="M94.7,106.4c2.2,0.6,5.3,1.4,9.1,1.8c2.7,0.3,7.2,0.8,12.7,0c6.9-1,8.8-3,12.7-1.8c2.6,0.8,4.4,2.4,5.4,3.6"/>	<path class="st1" d="M96.7,121.1c3.4-3.5,5.7-3.9,7.3-3.6c1.5,0.3,1.6,1.1,3.6,1.8c2.7,0.9,5.1,0.4,7.3,0c3.6-0.7,3.1-1.5,5.4-1.8		c3.8-0.5,5.2,1.4,10.9,1.8c1.5,0.1,2.8,0.1,3.6,0"/>	<path class="st1" d="M94.7,130c4.9,1.1,8.5,0.6,10.9,0c4.1-1.1,7.2-3.2,9.1-1.8c1.3,0.9,0.5,2.4,1.8,3.6c1.6,1.6,4.4,0.9,9.1,0		c2.5-0.5,6.2-1.1,10.9-1.8"/>	<path class="st1" d="M96.5,144.5c3.5-2.3,5.8-2.3,7.3-1.8c1.4,0.4,1.9,1.3,3.6,1.8c2.1,0.7,4.1,0.4,5.4,0"/>	<path class="st1" d="M123.7,144.9c1.5-1.5,2.8-2,3.8-2.2c1-0.2,1.7-0.1,3.8,0c1.6,0.1,2.9,0,3.8,0"/></g></svg>