<?xml version="1.0" encoding="utf-8"?><!-- Generator: Adobe Illustrator 21.0.2, SVG Export Plug-In . SVG Version: 6.00 Build 0)  --><svg version="1.1" id="Layer_1" xmlns="http://www.w3.org/2000/svg" xmlns:xlink="http://www.w3.org/1999/xlink" x="0px" y="0px"	 viewBox="0 0 200 200" style="enable-background:new 0 0 200 200;" xml:space="preserve"><style type="text/css">	.st0{fill:none;stroke:#3569A4;stroke-width:5;stroke-miterlimit:10;}</style><circle class="st0" cx="100" cy="100" r="96.6"/><g>	<line class="st0" x1="76.9" y1="162.8" x2="76.9" y2="37"/>	<line class="st0" x1="76.9" y1="41.5" x2="76.9" y2="38.3"/>	<path class="st0" d="M75.9,40.4"/>	<path class="st0" d="M98.4,37.2"/>	<path class="st0" d="M124.1,47.9"/>	<path class="st0" d="M94.1,69.4"/>	<path class="st0" d="M78,73.7"/>	<path class="st0" d="M119.5,44.8v36.4c-1.6-1.1-3.6-2.8-6.1-3.2c-7.1-1.3-11.3,3-19.3,4.3c-3.8,0.6-9.6,0.8-17.2-2.1V41.5		c6.4,2.1,11.5,2.3,15,2.2c9.1-0.5,13.9-4,21.5-2.2C115.9,42.1,117.9,43.7,119.5,44.8z"/>	<path class="st0" d="M122,45.8"/>	<line class="st0" x1="119.5" y1="81.5" x2="119.5" y2="81.2"/>	<line class="st0" x1="119.5" y1="44.8" x2="119.5" y2="44.5"/></g></svg>