<?xml version="1.0" encoding="utf-8"?><!-- Generator: Adobe Illustrator 21.0.2, SVG Export Plug-In . SVG Version: 6.00 Build 0)  --><svg version="1.1" id="Layer_1" xmlns="http://www.w3.org/2000/svg" xmlns:xlink="http://www.w3.org/1999/xlink" x="0px" y="0px"	 viewBox="0 0 200 200" style="enable-background:new 0 0 200 200;" xml:space="preserve"><style type="text/css">	.st0{fill:none;stroke:#3569A4;stroke-width:5;stroke-miterlimit:10;}	.st1{fill:none;stroke:#3569A4;stroke-width:6;stroke-miterlimit:10;}</style><circle class="st0" cx="100" cy="100" r="95.9"/><g>	<circle class="st1" cx="100" cy="83.5" r="17.1"/>	<path class="st1" d="M120.3,103.8"/>	<g>		<path class="st1" d="M107.5,101.6c9.4,1.7,14.2,6.4,16,8.5c4.7,5.3,6,11.7,8,21.3c1.3,6.2,1.8,11.4,2,14.9"/>		<line class="st1" x1="100" y1="147.5" x2="136.2" y2="147.5"/>	</g>	<g>		<path class="st1" d="M92.5,101.6c-9.4,1.7-14.2,6.4-16,8.5c-4.7,5.3-6,11.7-8,21.3c-1.3,6.2-1.8,11.4-2,14.9"/>		<line class="st1" x1="100" y1="147.5" x2="63.8" y2="147.5"/>	</g>	<line class="st1" x1="89.3" y1="102.7" x2="102.1" y2="115.5"/>	<line class="st1" x1="110.7" y1="102.7" x2="97.9" y2="115.5"/></g><g>	<circle class="st0" cx="53.1" cy="65.6" r="13"/>	<path class="st0" d="M68.6,81.1"/>	<g>		<path class="st0" d="M78.7,113.6"/>		<path class="st0" d="M78.7,112.4"/>		<path class="st0" d="M78.7,112.4"/>		<path class="st0" d="M58.8,79.4c7.2,1.3,10.9,4.9,12.3,6.5c3.6,4.1,4.6,8.9,6.1,16.3c0.4,2,0.7,3.9,1,5.6"/>		<path class="st0" d="M80.8,114.5"/>		<path class="st0" d="M77.4,114.5"/>		<path class="st0" d="M73.8,114.5"/>		<line class="st0" x1="53.1" y1="114.5" x2="73.8" y2="114.5"/>	</g>	<g>		<path class="st0" d="M47.4,79.4c-7.2,1.3-10.9,4.9-12.3,6.5c-3.6,4.1-4.6,8.9-6.1,16.3c-1,4.8-1.4,8.7-1.5,11.4"/>		<line class="st0" x1="53.1" y1="114.5" x2="25.4" y2="114.5"/>	</g>	<line class="st0" x1="44.9" y1="80.2" x2="54.7" y2="90"/>	<line class="st0" x1="61.3" y1="80.2" x2="51.5" y2="90"/></g><g>	<circle class="st0" cx="146.9" cy="65.6" r="13"/>	<path class="st0" d="M162.4,81.1"/>	<g>		<path class="st0" d="M152.6,79.4c7.2,1.3,10.9,4.9,12.3,6.5c3.6,4.1,4.6,8.9,6.1,16.3c1,4.8,1.4,8.7,1.5,11.4"/>		<line class="st0" x1="146.9" y1="114.5" x2="174.6" y2="114.5"/>	</g>	<g>		<path class="st0" d="M121.3,113.6"/>		<path class="st0" d="M121.9,107"/>		<path class="st0" d="M141.2,79.4c-7.2,1.3-10.9,4.9-12.3,6.5c-3.6,4.1-4.6,8.9-6.1,16.3c-0.4,1.7-0.6,3.3-0.8,4.8"/>		<path class="st0" d="M119.2,114.5"/>		<line class="st0" x1="146.9" y1="114.5" x2="128" y2="114.5"/>	</g>	<line class="st0" x1="138.7" y1="80.2" x2="148.5" y2="90"/>	<line class="st0" x1="155.1" y1="80.2" x2="145.3" y2="90"/></g></svg>