<?xml version="1.0" encoding="utf-8"?><!-- Generator: Adobe Illustrator 21.0.2, SVG Export Plug-In . SVG Version: 6.00 Build 0)  --><svg version="1.1" id="Layer_1" xmlns="http://www.w3.org/2000/svg" xmlns:xlink="http://www.w3.org/1999/xlink" x="0px" y="0px"	 viewBox="0 0 100 100" style="enable-background:new 0 0 100 100;" xml:space="preserve"><style type="text/css">	.st0{fill:none;stroke:#3569A4;stroke-width:2.5;stroke-miterlimit:10;}	.st1{fill:none;stroke:#3569A4;stroke-width:2;stroke-miterlimit:10;}</style><circle class="st0" cx="50" cy="50" r="45"/><g>	<circle class="st0" cx="50" cy="42.3" r="8"/>	<g>		<path class="st0" d="M53.5,50.8c4.4,0.8,6.7,3,7.5,4c2.2,2.5,2.8,5.5,3.8,10c0.6,2.9,0.8,5.4,0.9,7"/>		<line class="st0" x1="50" y1="72.3" x2="67" y2="72.3"/>	</g>	<g>		<path class="st0" d="M46.5,50.8c-4.4,0.8-6.7,3-7.5,4c-2.2,2.5-2.8,5.5-3.8,10c-0.6,2.9-0.8,5.4-0.9,7"/>		<line class="st0" x1="50" y1="72.3" x2="33" y2="72.3"/>	</g>	<line class="st0" x1="45" y1="51.3" x2="51" y2="57.3"/>	<line class="st0" x1="55" y1="51.3" x2="49" y2="57.3"/></g><g>	<circle class="st1" cx="28" cy="33.9" r="6.1"/>	<g>		<path class="st1" d="M30.7,40.4c3.4,0.6,5.1,2.3,5.7,3.1c1.7,1.9,2.2,4.2,2.9,7.6c0.2,0.9,0.3,1.8,0.5,2.6"/>		<line class="st1" x1="28" y1="56.8" x2="37.7" y2="56.8"/>	</g>	<g>		<path class="st1" d="M25.3,40.4c-3.4,0.6-5.1,2.3-5.8,3.1c-1.7,1.9-2.2,4.2-2.9,7.6c-0.5,2.2-0.6,4.1-0.7,5.3"/>		<line class="st1" x1="28" y1="56.8" x2="15" y2="56.8"/>	</g>	<line class="st1" x1="24.2" y1="40.7" x2="28.8" y2="45.3"/>	<line class="st1" x1="31.8" y1="40.7" x2="27.2" y2="45.3"/></g><g>	<circle class="st1" cx="72" cy="33.9" r="6.1"/>	<g>		<path class="st1" d="M74.7,40.4c3.4,0.6,5.1,2.3,5.8,3.1c1.7,1.9,2.2,4.2,2.9,7.6c0.5,2.2,0.6,4.1,0.7,5.3"/>		<line class="st1" x1="72" y1="56.8" x2="85" y2="56.8"/>	</g>	<g>		<path class="st1" d="M69.3,40.4c-3.4,0.6-5.1,2.3-5.7,3.1c-1.7,1.9-2.2,4.2-2.9,7.6c-0.2,0.8-0.3,1.6-0.4,2.2"/>		<line class="st1" x1="72" y1="56.8" x2="63.1" y2="56.8"/>	</g>	<line class="st1" x1="68.2" y1="40.7" x2="72.8" y2="45.3"/>	<line class="st1" x1="75.8" y1="40.7" x2="71.2" y2="45.3"/></g></svg>