<?xml version="1.0" standalone="no"?>
<!DOCTYPE svg PUBLIC "-//W3C//DTD SVG 20010904//EN"
 "http://www.w3.org/TR/2001/REC-SVG-20010904/DTD/svg10.dtd">
<svg version="1.0" xmlns="http://www.w3.org/2000/svg"
 width="1825.000000pt" height="450.000000pt" viewBox="0 0 1825.000000 450.000000"
 preserveAspectRatio="xMidYMid meet">
<metadata>
Created by potrace 1.13, written by Peter Selinger 2001-2015
</metadata>
<g transform="translate(0.000000,450.000000) scale(0.100000,-0.100000)"
fill="#000000" stroke="none">
<path d="M4103 4473 c-11 -10 -28 -40 -38 -68 -29 -81 -195 -452 -309 -692
-91 -190 -105 -226 -96 -244 16 -29 76 -52 139 -52 61 0 53 -7 130 111 81 124
179 240 271 320 112 98 181 139 283 171 80 24 91 25 373 25 278 1 293 0 314
-19 17 -15 21 -27 17 -52 -6 -38 -839 -2678 -904 -2868 -85 -245 -151 -340
-266 -383 -31 -12 -127 -31 -214 -43 -141 -18 -160 -23 -180 -45 -28 -30 -31
-100 -7 -146 l16 -30 216 7 c182 7 527 7 1501 1 l125 -1 19 33 c22 37 29 134
11 152 -5 5 -62 17 -125 26 -214 29 -290 59 -322 127 -26 54 -21 149 13 279
58 224 888 2890 907 2916 38 52 46 53 353 49 312 -5 352 -10 461 -68 99 -53
126 -146 115 -396 l-6 -143 27 -17 c36 -24 139 -25 174 -1 20 13 31 36 49 105
53 201 212 642 309 856 17 38 31 70 31 72 0 4 -52 23 -83 29 -46 10 -99 -10
-142 -55 -22 -22 -58 -50 -80 -62 -100 -52 -68 -50 -1262 -54 -1094 -4 -1482
3 -1568 28 -50 14 -105 68 -105 103 0 15 -8 30 -19 36 -32 16 -106 12 -128 -7z"/>
<path d="M16216 4148 c-5 -204 -10 -284 -19 -290 -7 -4 -26 -8 -43 -8 -30 0
-32 2 -38 46 -3 26 -6 64 -6 85 l0 39 -44 0 c-41 0 -44 -2 -50 -31 -3 -17 -6
-60 -6 -95 l0 -64 -124 0 c-68 0 -143 -3 -168 -6 l-44 -6 -67 -134 -67 -134
-52 0 c-29 0 -129 -5 -223 -10 -93 -6 -381 -15 -640 -20 -456 -9 -623 -20
-860 -55 -150 -22 -408 -71 -534 -101 -58 -13 -108 -21 -112 -17 -4 5 -25 53
-46 108 l-38 99 -64 13 c-35 7 -67 10 -70 7 -3 -3 -7 -67 -9 -142 -3 -145 -7
-182 -21 -182 -5 0 -16 28 -24 63 l-15 62 -1 -63 c-1 -61 -2 -64 -31 -75 -16
-6 -30 -15 -30 -20 0 -5 14 -14 30 -20 26 -10 30 -16 31 -52 1 -75 15 -85 23
-17 12 105 29 73 43 -79 6 -74 12 -136 12 -138 1 -4 109 9 126 15 7 3 23 53
35 112 13 59 26 111 30 115 4 5 46 -5 93 -22 396 -139 965 -209 1972 -241 400
-13 1931 -5 2140 11 310 24 519 100 575 209 30 58 27 136 -6 186 -32 49 -55
67 -124 103 -143 73 -222 87 -830 146 -201 19 -370 37 -375 39 -6 2 -51 65
-100 140 -77 116 -94 136 -116 136 l-26 0 -7 158 c-3 86 -9 214 -13 285 l-6
127 -27 0 -27 0 -7 -282z"/>
<path d="M1870 4399 c-197 -25 -375 -80 -540 -165 -310 -160 -510 -406 -597
-732 -23 -85 -26 -118 -27 -267 -1 -133 3 -184 16 -233 50 -178 146 -338 302
-499 109 -114 212 -199 437 -363 234 -170 380 -331 450 -498 110 -264 62 -577
-118 -772 -147 -158 -338 -230 -576 -217 -217 12 -399 94 -547 247 -186 191
-278 414 -325 783 -6 44 -10 50 -43 64 -41 17 -155 14 -173 -4 -15 -15 -53
-175 -78 -327 -27 -163 -41 -307 -41 -431 l0 -103 46 -61 c86 -114 252 -230
444 -308 227 -92 415 -126 700 -125 340 0 608 55 855 176 339 166 547 412 638
756 28 107 30 128 31 295 0 155 -3 193 -22 268 -91 361 -289 602 -747 907
-401 268 -564 476 -565 722 0 94 16 160 60 253 108 224 327 366 590 382 285
17 510 -104 615 -332 52 -112 67 -198 63 -358 l-3 -139 30 -15 c44 -23 128
-22 161 3 22 16 33 43 66 164 46 173 113 375 174 524 25 60 43 110 42 111 -97
70 -278 159 -417 204 -116 38 -294 76 -423 90 -111 13 -382 12 -478 0z"/>
<path d="M9705 4403 c-1237 -61 -2204 -736 -2540 -1773 -73 -227 -105 -432
-105 -682 0 -589 225 -1029 665 -1298 317 -195 802 -292 1300 -260 274 18 543
62 752 124 43 13 146 38 228 56 216 46 228 51 243 83 17 34 19 90 4 95 -6 2
-23 13 -38 24 -47 37 -33 114 95 550 113 385 148 486 187 548 51 82 101 108
252 135 108 18 124 33 130 112 3 46 0 63 -14 80 l-19 22 -325 -11 c-233 -7
-469 -7 -830 1 l-505 11 -22 -27 c-41 -50 -39 -151 3 -167 8 -3 70 -15 137
-26 224 -38 300 -69 331 -134 20 -42 20 -121 1 -203 -18 -76 -176 -597 -211
-696 -69 -192 -158 -278 -320 -308 -99 -19 -341 -5 -458 25 -491 127 -732 530
-713 1191 7 217 22 329 73 535 203 821 800 1513 1457 1685 147 38 243 48 420
42 119 -3 183 -10 242 -26 184 -48 312 -144 379 -283 57 -118 68 -180 71 -382
2 -160 5 -181 21 -193 24 -18 118 -17 154 2 32 17 27 1 100 275 54 201 99 341
167 518 30 79 53 145 51 147 -2 2 -50 20 -108 40 -376 130 -819 190 -1255 168z"/>
<path d="M12699 2633 c-14 -36 4 -77 37 -85 16 -3 60 -14 98 -22 78 -18 110
-42 128 -95 16 -47 24 -1566 9 -1673 -16 -113 -40 -135 -181 -165 -77 -17 -84
-20 -91 -46 -4 -16 -4 -39 1 -51 l8 -23 506 0 506 0 6 22 c3 13 4 36 2 51 -3
28 -6 30 -93 47 -102 19 -131 37 -160 93 -19 38 -20 62 -23 842 -2 525 1 823
8 860 18 99 44 120 181 149 l84 18 0 50 0 50 -509 0 -508 0 -9 -22z"/>
<path d="M14600 2099 c-73 -39 -280 -119 -408 -159 -87 -27 -105 -36 -113 -57
-15 -40 5 -84 52 -113 23 -14 51 -38 63 -55 21 -30 21 -35 21 -520 0 -449 -1
-493 -18 -522 -22 -42 -43 -52 -130 -67 -71 -11 -72 -12 -81 -49 -6 -24 -6
-45 2 -61 l10 -23 454 0 c320 0 455 3 460 11 12 18 9 93 -4 103 -7 6 -32 13
-55 17 -64 9 -90 25 -110 65 -15 32 -18 81 -21 451 -4 443 2 539 37 589 31 42
118 82 194 88 122 10 221 -40 268 -134 24 -48 24 -48 27 -477 3 -443 -2 -518
-37 -550 -9 -9 -46 -22 -82 -29 -61 -12 -64 -14 -72 -47 -6 -21 -5 -45 1 -61
l10 -26 454 0 c324 0 455 3 460 11 12 18 9 93 -4 103 -7 6 -44 15 -82 21 -38
6 -77 19 -89 29 -50 45 -51 53 -57 588 -5 480 -6 502 -27 552 -66 163 -171
254 -332 289 -164 34 -298 4 -539 -122 -128 -67 -129 -67 -121 62 8 132 -20
152 -131 93z"/>
<path d="M16892 2069 c-171 -22 -364 -100 -495 -199 -213 -161 -330 -426 -314
-710 7 -113 24 -190 64 -285 88 -209 284 -367 529 -426 106 -26 305 -31 399
-10 202 44 400 184 484 341 29 54 32 65 21 89 -11 27 -46 51 -75 51 -7 0 -28
-20 -46 -45 -109 -152 -348 -189 -559 -88 -34 16 -84 56 -131 102 -124 123
-179 266 -179 460 0 181 52 337 147 441 74 81 128 105 233 105 70 0 93 -4 130
-23 78 -41 148 -100 223 -188 70 -83 73 -85 111 -82 38 3 42 6 71 62 27 54 30
69 30 150 -1 99 -23 161 -68 190 -85 55 -389 89 -575 65z"/>
<path d="M11163 1101 c-57 -26 -118 -92 -137 -148 -36 -106 -11 -189 74 -243
77 -50 103 -90 108 -167 4 -56 1 -71 -27 -128 -41 -84 -128 -162 -241 -219
-47 -23 -95 -45 -107 -48 -45 -12 -52 -88 -11 -124 18 -17 22 -18 85 -1 283
74 543 251 641 435 51 96 65 161 60 282 -4 93 -8 115 -36 173 -40 87 -112 158
-187 186 -71 27 -165 27 -222 2z"/>
<path d="M18014 820 c-126 -29 -186 -171 -121 -282 71 -122 259 -122 324 1 76
146 -48 318 -203 281z"/>
</g>
</svg>
