<?xml version="1.0" encoding="utf-8"?><!-- Generator: Adobe Illustrator 15.0.0, SVG Export Plug-In . SVG Version: 6.00 Build 0)  --><!DOCTYPE svg PUBLIC "-//W3C//DTD SVG 1.1//EN" "http://www.w3.org/Graphics/SVG/1.1/DTD/svg11.dtd"><svg version="1.1" id="Layer_1" xmlns="http://www.w3.org/2000/svg" xmlns:xlink="http://www.w3.org/1999/xlink" x="0px" y="0px"	 width="1825px" height="450px" viewBox="0 0 1825 450" enable-background="new 0 0 1825 450" xml:space="preserve"><g transform="translate(0.000000,450.000000) scale(0.100000,-0.100000)">	<path fill="#942735" d="M4102.998,4472.998c-10.996-10-27.998-40-37.998-67.998c-29.004-81.001-195-452.002-309.004-692.002		c-90.996-190-105-225.996-95.996-243.999c15.996-28.999,75.996-51.997,139.004-51.997c60.996,0,52.998-7.002,130,110.996		c80.996,124.004,178.994,240,270.996,320c112.002,98.003,180.996,139.004,282.998,171.001c80,23.999,91.006,25,372.998,25		c278.008,1.001,293.008,0,314.004-18.999c17.002-15,20.996-27.002,17.002-52.002C5180.996,3935,4347.998,1295,4282.998,1105		c-85-245-150.996-340-265.996-382.998C3985.996,710,3890,690.996,3802.998,679.004c-140.996-18.008-160-23.008-180-45		c-27.998-30-30.996-100-7.002-146.006l16.006-30L3847.998,465c182.002,7.002,527.002,7.002,1501.006,0.996l125-0.996l18.994,32.998		C5515,535,5522.001,632.002,5504.003,650c-5,5-62.002,17.002-125,25.996C5165,705,5089.003,735,5057.001,802.998		c-26.006,54.004-21.006,149.004,12.998,279.004c57.998,223.994,887.998,2890,907.002,2915.996		C6015,4050,6022.998,4051,6330,4047.001c312.002-5,352.002-10,460.996-68.003c99.004-52.998,126.006-146.001,115-396.001L6900,3440		l27.002-17.002c35.996-23.999,138.994-25,173.994-0.996c20,12.998,31.006,35.996,49.004,105		c52.998,200.996,212.002,641.997,309.004,855.996c16.992,38.003,30.996,70,30.996,72.002c0,3.999-52.002,22.998-82.998,28.999		c-46.006,10-99.004-10-142.002-55c-22.002-21.997-57.998-50-80-61.997c-100-52.002-67.998-50-1262.002-54.004		C4829.003,4308.999,4440.996,4316,4355,4341c-50,13.999-105,67.998-105,102.998c0,15-7.998,30-19.004,36.001		C4199.003,4496,4125,4492.001,4102.998,4472.998z"/>	<path fill="#942735" d="M16215.995,4147.998c-5-203.999-10-283.999-18.994-290c-7.002-3.999-26.006-7.998-42.998-7.998		c-30,0-32.002,2.002-38.008,46.001c-2.998,26.001-5.996,63.999-5.996,85V4020h-44.004c-40.996,0-43.994-2.002-50-31.001		c-2.998-16.997-5.996-60-5.996-95V3830h-124.004c-67.998,0-142.998-2.998-167.998-6.001l-43.994-6.001l-67.002-133.999		L15539.999,3550h-52.002c-28.994,0-128.994-5-222.998-10c-92.998-6.001-380.996-15-640-20c-455.996-8.999-622.998-20-860-55		c-150-22.002-407.998-71.001-534.004-101.001c-57.998-12.998-107.998-21.001-111.992-16.997c-4.004,5-25,52.998-46.006,107.998		l-37.998,98.999l-64.004,13.003c-35,6.997-66.992,10-70,6.997c-2.998-2.998-6.992-66.997-8.994-141.997		c-2.998-145-7.002-182.002-21.006-182.002c-5,0-15.996,27.998-23.994,62.998l-15,62.002l-1.006-62.998		c-0.996-61.001-1.992-64.004-30.996-75c-15.996-6.001-30-15-30-20s14.004-14.004,30-20c25.996-10,30-16.001,30.996-52.002		c1.006-75,15-85,23.008-17.002c11.992,105,28.994,73.003,42.998-78.999c5.996-73.999,12.002-136.001,12.002-137.998		c0.996-3.999,108.994,8.999,125.996,15c7.002,2.998,22.998,52.998,35,111.997c12.998,59.004,25.996,111.001,30,115		c4.004,5,45.996-5,92.998-21.997c396.006-138.999,965-208.999,1972.002-241.001c400-12.998,1930.995-5,2139.999,11.001		c310,23.999,519.004,100,575,208.999c30,57.998,27.002,136.001-5.996,186.001c-32.002,48.999-55,66.997-124.004,102.998		c-142.998,73.003-222.002,87.002-830,146.001c-200.996,18.999-370,37.002-375,38.999c-5.996,2.002-50.996,65-100,140		C16367.996,3840,16350.994,3860,16329.002,3860h-26.005l-7.002,157.998c-2.998,86.001-8.994,214.004-12.998,285l-5.996,127.002		h-27.002h-27.002L16215.995,4147.998z"/>	<path fill="#942735" d="M1870,4398.999c-197.002-25-375-80-540-165c-310-160-510-406.001-597.002-731.997		c-22.998-85-25.996-118.003-26.997-267.002c-1.001-132.998,2.998-183.999,16.001-232.998		c50-178.003,145.996-338.003,301.997-499.004c108.999-113.999,212.002-198.999,437.002-362.998		c233.999-170,380-330.996,450-497.998c110-264.004,61.997-577.002-118.003-772.002C1646.001,712.002,1455,640,1217.002,652.998		C1000,665,817.998,747.002,670,900c-186.001,190.996-277.998,414.004-325,782.998c-6.001,44.004-10,50-42.998,64.004		c-41.001,17.002-155,13.994-173.003-4.004c-15-15-52.998-175-77.998-327.002C23.999,1252.998,10,1109.004,10,985V882.002		l46.001-61.006c86.001-113.994,251.997-230,443.999-307.998c227.002-92.002,415-125.996,700-125c340,0,607.998,55,855,176.006		C2393.999,730,2602.002,975.996,2692.998,1320c28.003,107.002,30,127.998,31.001,295c0,155-2.998,192.998-21.997,267.998		C2611.001,2244.004,2412.998,2485,1955,2790c-401.001,267.998-563.999,476.001-565,722.002c0,93.999,16.001,160,60,252.998		c107.998,223.999,327.002,366.001,590,382.002c285,16.997,510-104.004,615-332.002c52.002-112.002,67.002-197.998,62.998-357.998		L2715,3317.998l30-15c43.999-22.998,127.998-21.997,161.001,3.003c21.997,16.001,32.998,42.998,66.001,163.999		c45.996,172.998,112.998,375,173.994,523.999c25,60,43.008,110,42.002,111.001c-97.002,70-277.998,158.999-416.997,203.999		c-116.001,38.003-293.999,76.001-423.003,90C2237.002,4412.001,1966.001,4411,1870,4398.999z"/>	<path fill="#942735" d="M9704.999,4402.998C8467.997,4342.001,7500.996,3667.001,7165,2630		c-72.998-227.002-105-432.002-105-682.002c0-588.994,225-1028.994,665-1297.998c317.002-195,802.001-292.002,1300-260		c274.004,17.998,542.998,62.002,752.002,124.004c42.998,12.998,145.996,37.998,227.998,55.996		c215.996,45.996,227.998,50.996,242.998,82.998c17.002,34.004,19.004,90,4.004,95c-6.006,2.002-22.998,12.998-37.998,24.004		c-47.002,37.002-33.008,113.994,95,550c112.998,385,147.998,485.996,186.992,547.998c51.006,82.002,101.006,107.998,252.002,135		c107.998,17.998,124.004,32.998,130,112.002c2.998,45.996,0,62.998-13.994,80l-19.004,22.002l-325-11.006		c-232.998-7.002-469.004-7.002-830,1.006l-505,10.996l-22.002-27.002c-40.996-50-38.994-150.996,2.998-167.002		c8.008-2.998,70-15,137.002-25.996c224.004-37.998,300-69.004,331.006-134.004c20-41.992,20-120.996,0.996-202.998		c-17.998-75.996-175.996-597.002-210.996-695.996c-69.004-192.002-158.008-277.998-320-307.998		c-99.004-19.004-341.006-5-458.008,25C8155,810.996,7914.003,1214.004,7932.998,1875c7.002,217.002,22.002,329.004,72.998,535		c203.007,821.001,800,1512.998,1457.001,1685c147.002,37.998,242.998,47.998,420,42.002c119.004-3.003,182.998-10,242.002-26.001		c184.004-48.003,312.002-143.999,379.004-283.003c56.992-117.998,67.998-180,70.996-381.997c2.002-160,5-181.001,20.996-193.003		c24.004-17.998,118.008-16.997,154.004,2.002c32.002,17.002,27.002,1.001,100,275c54.004,201.001,99.004,341.001,167.002,517.998		c30,79.004,52.998,145,50.996,147.002s-50,20-107.998,40C10584.003,4365,10140.995,4425,9704.999,4402.998z"/>	<path fill="#942735" d="M12699.003,2632.998c-14.004-35.996,3.994-76.997,36.992-85c16.006-2.998,60-13.999,98.008-21.997		c77.998-18.003,110-42.002,127.998-95c15.996-47.002,23.994-1566.001,8.994-1673.003c-15.996-112.998-40-135-180.996-165		c-77.002-17.002-84.004-20-90.996-45.996c-4.004-16.006-4.004-39.004,0.996-51.006l7.998-22.998h506.006h505.996l5.996,22.002		c3.008,12.998,4.004,35.996,2.002,50.996c-2.998,28.008-5.996,30-92.998,47.002c-102.002,19.004-130.996,37.002-160,92.998		c-19.004,38.008-20,62.002-22.998,842.002c-2.002,525,0.996,823.003,7.998,860c17.998,99.004,44.004,120,180.996,149.004		l84.004,17.998v50v50h-509.004h-507.998L12699.003,2632.998z"/>	<path fill="#942735" d="M14599.999,2099.004c-72.998-39.004-280-119.004-407.998-159.004c-87.002-27.002-105-35.996-112.998-57.002		c-15-40,5-83.994,51.992-112.998c23.008-14.004,51.006-37.998,63.008-55c20.996-30,20.996-35,20.996-520		c0-449.004-0.996-492.998-17.998-522.002c-22.002-42.002-42.998-52.002-130-67.002c-71.006-10.996-72.002-11.992-81.006-48.994		c-5.996-24.004-5.996-45,2.002-61.006l10-22.998h454.004c320,0,455,2.998,460,11.006c12.002,17.998,8.994,92.998-4.004,102.998		c-7.002,5.996-32.002,12.998-55,17.002c-63.994,8.994-90,25-110,65c-15,31.992-17.998,80.996-20.996,450.996		c-4.004,442.998,2.002,539.004,37.002,589.004c30.996,41.992,117.998,81.992,193.994,87.998c122.002,10,221.006-40,267.998-134.004		c24.004-47.998,24.004-47.998,27.002-477.002c2.998-442.998-2.002-517.998-37.002-550c-8.994-8.994-45.996-21.992-81.992-28.994		c-61.006-12.002-64.004-14.004-72.002-47.002c-6.006-20.996-5-45,0.996-60.996l10-26.006h454.004c323.994,0,455,2.998,460,11.006		c12.002,17.998,8.994,92.998-4.004,102.998c-7.002,5.996-43.994,15-82.002,20.996c-37.998,6.006-76.992,19.004-88.994,29.004		c-50,45-51.006,52.998-57.002,587.998c-5,480-5.996,502.002-27.002,552.002c-65.996,162.998-170.996,253.994-332.002,288.994		c-163.994,34.004-297.998,4.004-538.994-121.992c-127.998-67.002-129.004-67.002-121.006,61.992		C14739.003,2137.998,14710.995,2157.998,14599.999,2099.004z"/>	<path fill="#942735" d="M16892,2069.004c-171.006-22.002-364.004-100-495-199.004c-212.997-160.996-329.999-425.996-314.003-710		c7.002-112.998,24.004-190,64.004-285c87.998-209.004,283.993-367.002,528.993-425.996c106.006-26.006,305-31.006,399.004-10		c202.002,43.994,400,183.994,484.004,340.996c28.994,54.004,31.992,65,20.996,89.004c-10.996,26.992-45.996,50.996-75,50.996		c-7.002,0-27.998-20-45.996-45c-109.004-152.002-348.008-189.004-559.004-87.998c-34.004,15.996-84.004,55.996-130.996,102.002		c-124.004,122.998-179.004,265.996-179.004,460c0,180.996,52.002,336.992,147.002,440.996c73.994,80.996,127.998,105,232.998,105		c70,0,92.998-4.004,130-22.998c77.998-41.006,147.998-100,222.998-187.998c70-83.008,72.998-85,111.006-82.002		c37.998,2.998,41.992,5.996,70.996,62.002c27.002,53.994,30,68.994,30,150c-0.996,98.994-22.998,160.996-67.998,190		C17382,2059.004,17077.996,2092.998,16892,2069.004z"/>	<path fill="#942735" d="M11162.997,1100.996c-57.002-25.996-117.998-91.992-137.002-147.998		c-35.996-105.996-10.996-188.994,74.004-242.998c77.002-50,102.998-90,107.998-167.002c4.004-55.996,1.006-70.996-27.002-127.998		c-40.996-84.004-127.998-162.002-240.996-219.004c-47.002-22.998-95-45-107.002-47.998c-45-12.002-52.002-87.998-10.996-123.994		c17.998-17.002,22.002-18.008,85-1.006c282.998,74.004,542.998,251.006,640.996,435c51.006,96.006,65,161.006,60,282.002		c-3.994,92.998-7.998,115-35.996,172.998c-40,87.002-112.002,157.998-187.002,186.006		C11314.003,1125.996,11219.999,1125.996,11162.997,1100.996z"/>	<path fill="#942735" d="M18014.002,820c-126.006-29.004-186.006-170.996-121.006-282.002		c71.006-122.002,259.004-122.002,324.004,1.006C18292.996,685,18169.002,857.002,18014.002,820z"/></g></svg>