<?xml version="1.0" encoding="utf-8"?><!-- Generator: Adobe Illustrator 21.0.2, SVG Export Plug-In . SVG Version: 6.00 Build 0)  --><svg version="1.1" id="Layer_1" xmlns="http://www.w3.org/2000/svg" xmlns:xlink="http://www.w3.org/1999/xlink" x="0px" y="0px"	 viewBox="0 0 200 200" style="enable-background:new 0 0 200 200;" xml:space="preserve"><style type="text/css">	.st0{fill:none;stroke:#3569A4;stroke-width:5;stroke-miterlimit:10;}	.st1{fill:none;stroke:#3569A4;stroke-width:15;stroke-miterlimit:10;}	.st2{fill:#3569A4;}	.st3{fill:#FFFFFF;}</style><path class="st0" d="M100,4.7C46.8,4.7,3.6,47.4,3.6,100c0,52.6,43.2,95.3,96.4,95.3s96.4-42.7,96.4-95.3	C196.4,47.4,153.2,4.7,100,4.7z M100,114.8c-8.3,0-15-6.6-15-14.8s6.7-14.8,15-14.8s15,6.6,15,14.8S108.3,114.8,100,114.8z"/><path class="st1" d="M115.2,100c0,8.3-6.8,15.1-15.2,15.1s-15.2-6.7-15.2-15.1s6.8-15.1,15.2-15.1S115.2,91.7,115.2,100z"/><g>	<path class="st2" d="M30.2,100l1.1-1.8l1.1-1.6l2.2-3.3c1.5-2,2.9-4,4.4-5.7c1.5-1.9,2.9-3.4,4.4-5.1c0.7-0.9,1.5-1.5,2.2-2.3		l2.2-2.2c2.9-2.8,5.8-5.3,8.7-7.5c2.9-2.2,5.8-4.1,8.7-5.8C76.7,58,88.4,55.1,100,55c11.6,0,23.3,2.8,34.9,9.6		c1.5,0.8,2.9,1.8,4.4,2.7c1.5,1,2.9,2,4.4,3.1c2.9,2.2,5.8,4.7,8.7,7.5l2.2,2.2c0.7,0.8,1.5,1.4,2.2,2.3c1.5,1.7,2.9,3.2,4.4,5.1		c1.5,1.7,2.9,3.7,4.4,5.7l2.2,3.3l1.1,1.7l1.1,1.9l-1.1,1.9l-1.1,1.7l-2.2,3.3c-1.5,2-2.9,4-4.4,5.7c-1.5,1.9-2.9,3.4-4.4,5.1		c-0.7,0.9-1.5,1.5-2.2,2.3l-2.2,2.2c-2.9,2.8-5.8,5.3-8.7,7.5c-1.5,1.1-2.9,2.1-4.4,3.1c-1.5,0.9-2.9,1.9-4.4,2.7		c-11.6,6.7-23.3,9.6-34.9,9.6c-11.6-0.1-23.3-2.9-34.9-9.7c-2.9-1.7-5.8-3.6-8.7-5.8c-2.9-2.2-5.8-4.7-8.7-7.5l-2.2-2.2		c-0.7-0.7-1.5-1.4-2.2-2.3c-1.5-1.7-2.9-3.2-4.4-5.1c-1.5-1.7-2.9-3.7-4.4-5.7l-2.2-3.3l-1.1-1.6L30.2,100z"/></g><g>	<path class="st3" d="M36.8,100c2.6-4.4,5.3-7.9,7.9-11.1c2.6-3.2,5.3-6,7.9-8.5c2.6-2.5,5.3-4.7,7.9-6.6c2.6-2,5.3-3.7,7.9-5.2		c10.5-6,21.1-8.6,31.6-8.6c10.5,0,21.1,2.5,31.6,8.5c1.3,0.7,2.6,1.6,4,2.4c1.3,0.9,2.6,1.8,4,2.8c2.6,2,5.3,4.2,7.9,6.7		c2.6,2.5,5.3,5.3,7.9,8.5c2.6,3.2,5.3,6.7,7.9,11.1c-2.6,4.5-5.3,8-7.9,11.1c-2.6,3.2-5.3,6-7.9,8.5c-2.6,2.5-5.3,4.7-7.9,6.7		c-1.3,1-2.6,1.9-4,2.8c-1.3,0.8-2.6,1.7-4,2.4c-10.5,6-21.1,8.5-31.6,8.5c-10.5-0.1-21.1-2.6-31.6-8.6c-2.6-1.5-5.3-3.2-7.9-5.2		c-2.6-2-5.3-4.2-7.9-6.6c-2.6-2.5-5.3-5.3-7.9-8.5C42,107.9,39.4,104.4,36.8,100z"/></g><path class="st1" d="M115.3,100c0,8.4-6.8,15.2-15.3,15.2s-15.3-6.8-15.3-15.2s6.8-15.2,15.3-15.2S115.3,91.6,115.3,100z"/></svg>