<?xml version="1.0" encoding="utf-8"?><!-- Generator: Adobe Illustrator 21.0.2, SVG Export Plug-In . SVG Version: 6.00 Build 0)  --><svg version="1.1" id="Layer_1" xmlns="http://www.w3.org/2000/svg" xmlns:xlink="http://www.w3.org/1999/xlink" x="0px" y="0px"	 viewBox="0 0 100 100" style="enable-background:new 0 0 100 100;" xml:space="preserve"><style type="text/css">	.st0{fill:none;stroke:#3569A4;stroke-width:2.5;stroke-miterlimit:10;}	.st1{fill:#3569A4;}	.st2{fill:#FFFFFF;}	.st3{fill:none;stroke:#3569A4;stroke-width:6;stroke-miterlimit:10;}</style><circle class="st0" cx="50" cy="50" r="45"/><g>	<path class="st1" d="M18,50l0.5-0.8l0.5-0.7l1-1.5c0.7-0.9,1.3-1.8,2-2.5c1.3-1.6,2.7-3,4-4.2c2.7-2.5,5.3-4.4,8-5.9		c5.3-3,10.7-4.3,16-4.3c5.3,0,10.7,1.3,16,4.3c2.7,1.5,5.3,3.4,8,5.9c1.3,1.3,2.7,2.6,4,4.3c0.7,0.8,1.3,1.7,2,2.5l1,1.5l0.5,0.7		L82,50l-0.5,0.8L81,51.6L80,53c-0.7,0.9-1.3,1.8-2,2.5c-1.3,1.6-2.7,3-4,4.3c-2.7,2.5-5.3,4.4-8,5.9c-5.3,3-10.7,4.3-16,4.3		c-5.3,0-10.7-1.3-16-4.3c-2.7-1.5-5.3-3.4-8-5.9c-1.3-1.3-2.7-2.6-4-4.2c-0.7-0.8-1.3-1.6-2-2.5l-1-1.5l-0.5-0.7L18,50z"/></g><g>	<path class="st2" d="M21,50l0.5-0.7l0.5-0.6l0.9-1.2c0.6-0.8,1.2-1.5,1.8-2.2c1.2-1.4,2.4-2.5,3.6-3.6c2.4-2.1,4.8-3.8,7.3-5		C40.3,34.1,45.2,33,50,33c4.8,0,9.7,1.1,14.5,3.6c2.4,1.3,4.8,2.9,7.3,5c1.2,1.1,2.4,2.2,3.6,3.6c0.6,0.7,1.2,1.4,1.8,2.2l0.9,1.2		l0.5,0.6L79,50l-0.5,0.7l-0.5,0.6l-0.9,1.2c-0.6,0.8-1.2,1.5-1.8,2.2c-1.2,1.4-2.4,2.5-3.6,3.6c-2.4,2.1-4.8,3.8-7.3,5		C59.7,65.9,54.8,67,50,67c-4.8,0-9.7-1.1-14.5-3.7c-2.4-1.3-4.8-2.9-7.3-5c-1.2-1.1-2.4-2.2-3.6-3.6c-0.6-0.7-1.2-1.4-1.8-2.2		l-0.9-1.2l-0.5-0.6L21,50z"/></g><circle class="st3" cx="50" cy="50" r="7"/></svg>